solid 
 facet normal  9.781476e-01 -2.079117e-01 -3.433563e-15
   outer loop
     vertex  4.142987e-01  5.620113e-01 -8.382000e-01
     vertex  4.055851e-01  5.210171e-01  8.382000e-01
     vertex  4.055851e-01  5.210171e-01 -8.382000e-01
   endloop
 endfacet
 facet normal  9.781476e-01 -2.079117e-01 -3.433309e-15
   outer loop
     vertex  4.142987e-01  5.620113e-01 -8.382000e-01
     vertex  4.142987e-01  5.620113e-01  8.382000e-01
     vertex  4.055851e-01  5.210171e-01  8.382000e-01
   endloop
 endfacet
endsolid
