solid 
 facet normal -3.498088e-15  7.435416e-16 -1.000000e+00
   outer loop
     vertex -4.055846e-01  7.362829e-01 -8.382000e-01
     vertex  4.142987e-01  5.620113e-01 -8.382000e-01
     vertex  4.055851e-01  5.210171e-01 -8.382000e-01
   endloop
 endfacet
 facet normal -3.498088e-15  7.435416e-16 -1.000000e+00
   outer loop
     vertex -4.055846e-01  7.362829e-01 -8.382000e-01
     vertex  4.055851e-01  5.210171e-01 -8.382000e-01
     vertex -4.142982e-01  6.952887e-01 -8.382000e-01
   endloop
 endfacet
endsolid
