solid 
 facet normal -9.781476e-01  2.079117e-01  3.432791e-15
   outer loop
     vertex -4.142982e-01  6.952887e-01 -8.382000e-01
     vertex -4.055846e-01  7.362829e-01  8.382000e-01
     vertex -4.055846e-01  7.362829e-01 -8.382000e-01
   endloop
 endfacet
 facet normal -9.781476e-01  2.079117e-01  3.433309e-15
   outer loop
     vertex -4.142982e-01  6.952887e-01 -8.382000e-01
     vertex -4.142982e-01  6.952887e-01  8.382000e-01
     vertex -4.055846e-01  7.362829e-01  8.382000e-01
   endloop
 endfacet
endsolid
