solid 
 facet normal  2.079117e-01  9.781476e-01 -7.308473e-16
   outer loop
     vertex -4.055846e-01  7.362829e-01 -8.382000e-01
     vertex  4.142987e-01  5.620113e-01  8.382000e-01
     vertex  4.142987e-01  5.620113e-01 -8.382000e-01
   endloop
 endfacet
 facet normal  2.079117e-01  9.781476e-01 -7.297723e-16
   outer loop
     vertex -4.055846e-01  7.362829e-01 -8.382000e-01
     vertex -4.055846e-01  7.362829e-01  8.382000e-01
     vertex  4.142987e-01  5.620113e-01  8.382000e-01
   endloop
 endfacet
endsolid
